HIERARCHY
ROOT Hips
{
	OFFSET -0.179506 -22.333345 2.821913
	CHANNELS 6 Xposition Yposition Zposition Zrotation Yrotation Xrotation 
	JOINT LeftUpLeg
	{
		OFFSET 6.951974 -9.140623 -0.681533
		CHANNELS 3 Zrotation Yrotation Xrotation
		JOINT LeftLeg
		{
			OFFSET 3.427654 -37.519855 -0.449580
			CHANNELS 3 Zrotation Yrotation Xrotation
			JOINT LeftFoot
			{
				OFFSET -1.359570 -39.796059 -4.369333
				CHANNELS 3 Zrotation Yrotation Xrotation
				JOINT LeftToe
				{
					OFFSET 2.635814 -5.579078 11.928840
					CHANNELS 3 Zrotation Yrotation Xrotation
					End Site
					{
						OFFSET 0.000000 0.000000 0.000000
					}
				}
			}
		}
	}
	JOINT RightUpLeg
	{
		OFFSET -6.767048 -9.052170 -0.431982
		CHANNELS 3 Zrotation Yrotation Xrotation
		JOINT RightLeg
		{
			OFFSET -3.829005 -38.256897 -0.885003
			CHANNELS 3 Zrotation Yrotation Xrotation
			JOINT RightFoot
			{
				OFFSET 1.577377 -39.841461 -4.231180
				CHANNELS 3 Zrotation Yrotation Xrotation
				JOINT RightToe
				{
					OFFSET -2.537174 -4.814398 12.334795
					CHANNELS 3 Zrotation Yrotation Xrotation
					End Site
					{
						OFFSET 0.000000 0.000000 0.000000
					}
				}
			}
		}
	}
	JOINT Spine
	{
		OFFSET -0.253288 10.896323 -2.669631
		CHANNELS 3 Zrotation Yrotation Xrotation
		JOINT Spine1
		{
			OFFSET 0.548704 13.518043 0.109247
			CHANNELS 3 Zrotation Yrotation Xrotation
			JOINT Spine2
			{
				OFFSET 0.145701 5.292222 2.542457
				CHANNELS 3 Zrotation Yrotation Xrotation
				JOINT Neck
				{
					OFFSET -0.277840 21.387037 -4.285703
					CHANNELS 3 Zrotation Yrotation Xrotation
					JOINT Head
					{
						OFFSET 0.515184 6.496960 5.134897
						CHANNELS 3 Zrotation Yrotation Xrotation
						End Site
						{
							OFFSET 0.000000 0.000000 0.000000
						}
					}
				}
				JOINT LeftShoulder
				{
					OFFSET 7.884473 12.174932 -3.408961
					CHANNELS 3 Zrotation Yrotation Xrotation
					JOINT LeftArm
					{
						OFFSET 9.097692 3.046888 -0.886815
						CHANNELS 3 Zrotation Yrotation Xrotation
						JOINT LeftForeArm
						{
							OFFSET 25.961220 -1.277207 -2.745643
							CHANNELS 3 Zrotation Yrotation Xrotation
							JOINT LeftHand
							{
								OFFSET 24.923361 0.898606 -0.117091
								CHANNELS 3 Zrotation Yrotation Xrotation
								End Site
								{
									OFFSET 0.000000 0.000000 0.000000
								}
							}
						}
					}
				}
				JOINT RightShoulder
				{
					OFFSET -8.175920 11.883285 -3.861528
					CHANNELS 3 Zrotation Yrotation Xrotation
					JOINT RightArm
					{
						OFFSET -9.601238 3.255117 -0.914307
						CHANNELS 3 Zrotation Yrotation Xrotation
						JOINT RightForeArm
						{
							OFFSET -25.374195 -1.332924 -2.140099
							CHANNELS 3 Zrotation Yrotation Xrotation
							JOINT RightHand
							{
								OFFSET -25.529810 0.777228 -0.555919
								CHANNELS 3 Zrotation Yrotation Xrotation
								End Site
								{
									OFFSET 0.000000 0.000000 0.000000
								}
							}
						}
					}
				}
			}
		}
	}
}
MOTION
Frames: 14
Frame Time: 0.033333
49.846466 10.897181 11.393547 -102.138198 -4.793874 179.506934 0.690918 -6.136369 -6.489035 -8.571776 -13.192512 15.618477 -0.254832 2.973458 -7.667400 nan nan nan -6.138599 1.731223 -8.340175 5.788231 5.085197 19.537683 6.137287 -0.368968 -4.896427 nan nan nan -0.289024 -1.465459 1.056069 4.159644 -4.164267 2.279114 -0.555845 -3.434749 -2.018647 8.779504 -21.301137 -14.648396 11.799474 -17.196484 -24.780667 -10.853535 20.943043 1.629130 -41.345805 14.421322 2.192207 141.610932 -50.069792 -113.148850 34.567819 -21.619980 -25.294345 10.973870 -13.503661 -2.755085 32.003326 -3.557214 -7.235607 -143.653655 47.621919 -125.535263 -38.526849 18.833946 -33.212554 
49.772385 10.909334 11.558897 -102.208304 -4.771520 179.515267 0.697854 -5.898744 -6.965585 -8.911860 -12.660017 16.488067 -0.199314 2.742819 -8.376605 nan nan nan -6.237973 1.670608 -8.653842 5.870639 4.845326 19.927589 5.998791 -0.072099 -5.265898 nan nan nan -0.191693 -1.499512 1.040123 4.147009 -4.189455 2.203541 -0.573752 -3.379381 -2.235690 8.104242 -21.607467 -13.729659 12.060249 -17.056092 -25.064348 -12.095938 20.802752 1.290214 -40.145945 15.078865 2.759798 141.372156 -49.986051 -114.359478 34.997125 -21.988712 -27.205092 11.670560 -13.217834 -3.055515 31.483261 -4.109016 -7.060688 -143.229020 46.933429 -127.119284 -39.016358 18.737882 -36.034746 
49.700985 10.966517 11.660150 -102.173552 -4.759400 179.509883 0.600527 -6.025489 -7.187510 -8.751748 -12.489935 16.932800 -0.115023 2.843991 -8.652010 nan nan nan -6.133634 1.737813 -8.779653 5.864660 4.800348 20.043014 5.866915 -0.062449 -5.332894 nan nan nan -0.123422 -1.422303 0.982412 4.190415 -4.176127 2.276850 -0.523226 -3.344333 -2.338846 7.950167 -21.989015 -13.937732 12.379326 -17.135433 -25.512029 -13.039016 20.585810 0.969139 -39.460363 15.547305 3.178016 141.196178 -49.999631 -115.169833 35.049108 -22.088070 -28.261972 12.257566 -12.958224 -3.338774 31.024605 -4.640392 -6.945660 -142.936544 46.373509 -128.134840 -39.146860 18.583915 -37.513449 
49.715225 10.971788 11.675441 -102.412642 -5.009314 179.580029 0.149943 -6.263973 -7.458037 -8.460941 -12.586953 17.348141 -0.713647 2.227394 -8.190476 nan nan nan -6.628957 1.484060 -8.924660 6.039796 4.167017 20.241700 6.129304 0.732706 -5.502724 nan nan nan 0.447685 -0.351220 0.066598 3.814240 -3.297361 5.039967 -0.492401 -2.022481 -3.291116 6.978388 -21.442899 -13.651149 16.189985 -18.179950 -28.967653 -15.209902 16.270368 1.892465 -37.964950 15.069683 3.548663 140.885692 -48.833228 -117.183869 37.819917 -24.850727 -32.709730 12.861233 -11.013712 -1.417769 32.184635 -12.061881 -9.985138 -141.987011 40.220827 -131.475441 -41.503939 19.281910 -45.368616 
49.798611 10.802674 11.658441 -102.316476 -5.376011 -179.867030 0.588981 -6.345885 -8.483623 -8.944146 -12.236319 17.906521 -1.376551 0.942006 -6.985362 nan nan nan -6.755078 0.939296 -9.506686 5.793042 3.329449 20.470380 6.976940 2.180261 -5.497254 nan nan nan 0.116432 -0.227500 -0.314075 3.985502 -3.251754 5.893157 -0.342270 -1.929232 -5.409151 7.110115 -20.751625 -11.589452 16.247066 -19.616503 -28.395935 -13.677008 15.772741 3.647185 -38.386135 14.397381 -0.203662 146.258733 -45.726592 -114.758328 35.243056 -30.416001 -14.204333 13.408124 -11.027798 0.965298 31.571832 -11.563282 -13.709802 -146.918255 44.203392 -123.432369 -38.489351 28.081636 -19.986881 
49.799755 10.734989 11.576895 -102.365159 -5.547527 -179.913719 1.103794 -7.107337 -8.159580 -11.088542 -14.832420 18.740156 -1.597739 -0.496059 -10.554222 nan nan nan -6.869535 0.542564 -9.102536 5.797615 3.602689 20.253403 7.521334 2.442148 -5.384793 nan nan nan -0.437769 -0.011387 -0.891843 4.429250 -3.428851 6.658173 -0.628745 -1.988943 -4.513696 8.596176 -20.398686 -13.944579 16.123134 -19.990810 -27.097822 -11.447007 16.140358 4.631348 -41.176126 12.513007 -0.484262 147.824093 -46.125263 -116.799628 26.449316 -26.396835 -4.972217 13.309849 -12.565494 0.454270 31.972313 -9.778072 -13.534299 -152.296068 46.505787 -126.029927 -29.940776 24.899568 -2.406013 
49.763054 10.734874 11.507134 -102.321931 -5.526045 -179.950690 1.120033 -7.202755 -8.058373 -11.016605 -14.902506 18.745860 -1.539572 -0.320956 -10.561220 nan nan nan -6.764287 0.597411 -8.823733 5.759213 3.797577 20.040307 7.536529 2.219941 -5.333927 nan nan nan -0.407613 0.026393 -0.869379 4.441611 -3.437047 6.562628 -0.625596 -1.938967 -4.065237 8.853359 -20.461105 -14.625695 16.107786 -19.859127 -26.920743 -11.164924 16.127212 4.636347 -41.584408 12.324566 -0.332122 148.112859 -46.001559 -117.359015 26.203990 -25.655396 -6.163174 13.156484 -12.680468 0.254946 32.171218 -9.536819 -13.451172 -152.711923 46.477973 -126.367762 -29.719862 24.323932 -2.415444 
49.753048 10.736650 11.469581 -102.278578 -5.517916 -179.963805 1.207508 -7.177538 -8.042594 -11.110372 -14.974972 18.809853 -1.493322 -0.302186 -10.652975 nan nan nan -6.679306 0.603114 -8.693352 5.749413 3.929381 19.988467 7.608275 2.108400 -5.332646 nan nan nan -0.413977 0.042088 -0.794948 4.458057 -3.432219 6.444317 -0.622706 -1.935921 -3.841070 9.010799 -20.414100 -14.969040 16.055683 -20.033629 -26.708157 -10.663410 16.104415 4.811737 -42.097924 12.034648 -0.572726 148.335166 -45.998706 -117.019080 26.229577 -25.358234 -6.121046 12.970818 -12.703283 0.433333 32.480394 -9.242041 -13.672408 -152.994970 46.469551 -126.059669 -29.821499 24.024804 -2.060269 
49.742859 10.722613 11.441980 -102.258750 -5.550841 -179.949530 1.315924 -7.083892 -8.025124 -11.287325 -15.075231 18.793475 -1.497388 -0.438219 -10.673872 nan nan nan -6.648789 0.587986 -8.623442 5.735485 3.980645 19.966603 7.687510 2.027500 -5.329616 nan nan nan -0.481268 0.057282 -0.667191 4.474120 -3.429067 6.289177 -0.600707 -2.007704 -3.711605 9.218934 -20.200812 -15.276869 15.975979 -20.358578 -26.396333 -10.104353 16.099262 4.981387 -42.515249 11.818937 -1.032992 148.367403 -46.029116 -116.354895 26.118528 -25.368545 -5.574579 12.852209 -12.650140 0.662358 32.726578 -8.936975 -13.941993 -153.124760 46.435828 -125.802230 -29.734893 23.904952 -1.861481 
49.907257 10.882967 11.821695 -102.729197 -4.337810 -179.176590 1.267184 -7.121140 -9.137236 -11.450282 -13.748443 18.833475 -1.650735 -0.720870 -10.449279 nan nan nan -7.166309 1.125894 -10.825781 5.499436 3.303200 21.620188 8.301619 3.500136 -5.522068 nan nan nan -0.954060 -0.187648 -0.983324 3.751929 -2.528422 7.159116 -0.643228 -1.545758 -4.571538 10.205575 -18.700816 -16.154976 15.861489 -21.750082 -25.160312 -10.441832 15.859691 4.428505 -41.064906 13.720538 -1.093201 148.918210 -47.973218 -112.327706 39.860827 -35.103968 2.515692 13.781005 -11.891814 0.546040 32.761700 -9.536516 -14.637489 -152.994078 46.465828 -127.456002 -32.164860 28.040894 -0.676016 
49.390148 11.030164 11.691026 -102.319626 -4.902878 -177.276301 1.581904 -7.345044 -11.081608 -10.791329 -13.827057 19.077447 -3.764318 -1.439575 -10.268171 nan nan nan -6.561681 1.120831 -12.005274 5.343586 3.850867 20.363059 10.610347 2.219232 -4.482411 nan nan nan -2.533089 2.804290 2.192178 5.293959 1.289561 -10.432854 1.580771 -5.649360 4.784208 4.120304 -26.927536 -12.008914 18.969011 -17.069957 -24.322795 -13.062806 13.947671 6.979089 -42.818014 13.272677 0.182812 151.215265 -46.355007 -118.311157 43.397160 -33.161492 -16.014627 12.571973 -15.591951 -1.017435 28.962961 -11.616595 -16.119926 -155.733745 48.066132 -132.936807 -31.794872 26.680281 -2.120736 
49.353905 11.126043 11.767320 -102.419466 -5.082346 -177.122553 1.491662 -7.409053 -11.398553 -10.869743 -13.714411 19.515443 -3.501800 -1.622217 -10.632257 nan nan nan -6.716629 1.086627 -12.144477 5.415465 3.688994 20.511467 10.473994 2.297114 -4.659144 nan nan nan -2.668965 2.969276 2.299149 5.399112 1.317148 -10.579423 1.669765 -5.878127 4.377865 3.414314 -27.505228 -11.137846 19.268648 -16.700514 -24.306564 -13.851626 13.784667 7.164111 -42.300249 13.424019 0.212447 150.914097 -46.319031 -118.360056 42.930797 -33.400696 -16.149032 12.693713 -15.570332 -0.860291 28.772850 -11.836440 -16.242075 -156.076369 47.821519 -133.693438 -31.450179 26.760174 -2.555952 
49.340748 11.289214 11.831860 -102.436070 -5.018573 -176.983897 1.571539 -7.145414 -11.627342 -10.960945 -13.585263 19.777932 -3.370353 -1.794971 -10.960942 nan nan nan -6.669956 1.209975 -12.394110 5.328447 3.565899 20.810893 10.398812 2.413740 -4.791776 nan nan nan -2.966698 3.063896 2.246704 5.583415 1.380995 -10.330185 1.859319 -5.873149 3.819020 3.059216 -27.539467 -10.295028 19.495879 -16.651304 -24.629752 -14.387111 13.668598 7.326525 -41.706641 13.614888 0.233936 150.793620 -46.361068 -118.957299 42.043182 -33.761292 -15.294112 12.983559 -15.378839 -0.645955 28.536847 -12.104986 -16.439349 -156.369395 47.716393 -134.168727 -31.201897 26.866607 -2.385875 
49.327641 11.386210 11.851787 -102.461432 -5.108822 -176.824722 1.571010 -7.059933 -11.860045 -10.984935 -13.623895 20.004089 -3.290162 -1.838875 -11.085659 nan nan nan -6.692543 1.287930 -12.522230 5.284251 3.462595 20.934325 10.392143 2.413973 -4.847604 nan nan nan -3.035703 2.977143 2.077186 5.632432 1.232304 -10.226857 1.889021 -5.686386 3.631694 2.709960 -27.562743 -9.569314 19.788009 -16.526622 -24.969567 -14.691019 13.444037 7.455211 -41.420048 13.880129 0.256058 150.721096 -46.474449 -119.405591 41.855461 -33.665344 -15.641124 13.146856 -15.079449 -0.487704 28.578659 -12.395693 -16.680798 -156.788818 47.652236 -134.576631 -31.117056 26.862319 -2.176504 
